<svg width="32" height="32" viewBox="0 0 32 32" fill="none" xmlns="http://www.w3.org/2000/svg">
<mask id="mask0_118009_1587" style="mask-type:alpha" maskUnits="userSpaceOnUse" x="0" y="0" width="32" height="32">
<rect width="32" height="32" fill="#D9D9D9"/>
</mask>
<g mask="url(#mask0_118009_1587)">
<path d="M14.575 17.3559L12.3084 15.0336C12.0937 14.804 11.8289 14.6893 11.514 14.6893C11.1992 14.6893 10.9233 14.8004 10.6864 15.0226C10.4566 15.2521 10.3417 15.5261 10.3417 15.8446C10.3417 16.1633 10.4566 16.4374 10.6864 16.6669L13.7974 19.7559C14.0196 19.9781 14.2788 20.0893 14.575 20.0893C14.8715 20.0893 15.1308 19.9781 15.353 19.7559L21.3084 13.8226C21.5306 13.6004 21.6399 13.3337 21.6364 13.0226C21.6326 12.7115 21.5159 12.4448 21.2864 12.2226C21.0642 12.015 20.7993 11.9131 20.4917 11.9169C20.1844 11.9207 19.927 12.0263 19.7197 12.2336L14.575 17.3559ZM10.9974 29.1336L8.97505 25.6893L4.99738 24.8669C4.72338 24.8151 4.49749 24.6688 4.31972 24.4279C4.14194 24.1873 4.07527 23.9299 4.11972 23.6559L4.55305 19.7336L1.96405 16.7336C1.77138 16.5336 1.67505 16.2891 1.67505 16.0003C1.67505 15.7114 1.77138 15.4669 1.96405 15.2669L4.55305 12.2893L4.11972 8.36692C4.07527 8.09292 4.14194 7.83548 4.31972 7.59459C4.49749 7.35392 4.72338 7.2077 4.99738 7.15592L8.97505 6.33359L10.9974 2.86692C11.1456 2.62248 11.353 2.45392 11.6197 2.36126C11.8864 2.26881 12.153 2.28181 12.4197 2.40026L15.9974 4.02259L19.575 2.40026C19.8417 2.28181 20.1084 2.26514 20.375 2.35026C20.6417 2.43537 20.8492 2.60014 20.9974 2.84459L23.0417 6.33359L26.9974 7.15592C27.2714 7.2077 27.4973 7.35392 27.675 7.59459C27.8528 7.83548 27.9195 8.09292 27.875 8.36692L27.4417 12.2893L30.0307 15.2669C30.2234 15.4669 30.3197 15.7114 30.3197 16.0003C30.3197 16.2891 30.2234 16.5336 30.0307 16.7336L27.4417 19.7336L27.875 23.6559C27.9195 23.9299 27.8528 24.1873 27.675 24.4279C27.4973 24.6688 27.2714 24.8151 26.9974 24.8669L23.0417 25.6893L20.9974 29.1559C20.8492 29.4004 20.6417 29.5651 20.375 29.6503C20.1084 29.7354 19.8417 29.7187 19.575 29.6003L15.9974 27.9779L12.4197 29.6003C12.153 29.7187 11.8864 29.7317 11.6197 29.6393C11.353 29.5466 11.1456 29.378 10.9974 29.1336Z" fill="#3DCFB6"/>
</g>
</svg>
