<svg width="32" height="32" viewBox="0 0 32 32" fill="none" xmlns="http://www.w3.org/2000/svg">
<mask id="mask0_118009_876" style="mask-type:alpha" maskUnits="userSpaceOnUse" x="0" y="0" width="32" height="32">
<rect width="32" height="32" fill="#D9D9D9"/>
</mask>
<g mask="url(#mask0_118009_876)">
<path d="M15.9923 28.5879C15.7294 28.5879 15.4683 28.5434 15.209 28.4545C14.9499 28.3656 14.7203 28.2249 14.5203 28.0322C13.4165 27.0249 12.3165 25.9434 11.2203 24.7879C10.1239 23.6323 9.14052 22.4341 8.2703 21.1932C7.39985 19.9525 6.69241 18.6896 6.14797 17.4045C5.60352 16.1192 5.3313 14.8506 5.3313 13.5989C5.3313 10.2655 6.40352 7.60997 8.54797 5.63219C10.6924 3.65442 13.1757 2.66553 15.998 2.66553C18.8202 2.66553 21.3035 3.65442 23.448 5.63219C25.5924 7.60997 26.6646 10.2655 26.6646 13.5989C26.6646 14.8506 26.3924 16.1192 25.848 17.4045C25.3035 18.6896 24.5961 19.9525 23.7256 21.1932C22.8554 22.4341 21.8721 23.6323 20.7756 24.7879C19.6794 25.9434 18.5794 27.0249 17.4756 28.0322C17.2756 28.2249 17.0442 28.3656 16.7813 28.4545C16.5184 28.5434 16.2554 28.5879 15.9923 28.5879ZM16 15.7765C16.6726 15.7765 17.2479 15.537 17.7256 15.0579C18.2034 14.579 18.4423 14.0031 18.4423 13.3302C18.4423 12.6575 18.2027 12.0823 17.7236 11.6045C17.2447 11.1267 16.6689 10.8879 15.996 10.8879C15.3233 10.8879 14.7481 11.1274 14.2703 11.6065C13.7925 12.0854 13.5536 12.6613 13.5536 13.3342C13.5536 14.0069 13.7932 14.5821 14.2723 15.0599C14.7512 15.5376 15.3271 15.7765 16 15.7765Z" fill="#3DCFB6"/>
</g>
</svg>
