<svg width="32" height="32" viewBox="0 0 32 32" fill="none" xmlns="http://www.w3.org/2000/svg">
<path d="M15.6114 21.64C17.5751 21.64 19.2442 21.04 20.6188 19.84C21.9934 18.64 22.6807 17.1867 22.6807 15.48C22.6807 13.96 22.1687 12.6733 21.1448 11.62C20.1209 10.5667 18.8795 10.04 17.4208 10.04C16.1023 10.04 14.9872 10.44 14.0755 11.24C13.1638 12.04 12.7079 13.0267 12.7079 14.2C12.7079 14.7067 12.7991 15.2067 12.9814 15.7C13.1638 16.1933 13.4794 16.6267 13.9282 17C14.3771 17.3733 14.8259 17.5267 15.2748 17.46C15.7236 17.3933 16.0883 17.2133 16.3688 16.92C16.6493 16.6267 16.8106 16.2733 16.8527 15.86C16.8948 15.4467 16.7195 15.0667 16.3267 14.72C16.2706 14.6667 16.2145 14.6 16.1584 14.52C16.1023 14.44 16.0743 14.3467 16.0743 14.24C16.0743 13.9467 16.2005 13.7133 16.453 13.54C16.7054 13.3667 17.0281 13.28 17.4208 13.28C17.9818 13.28 18.4447 13.5 18.8094 13.94C19.1741 14.38 19.3564 14.9067 19.3564 15.52C19.3564 16.3467 18.9988 17.0467 18.2834 17.62C17.5681 18.1933 16.6914 18.48 15.6535 18.48C14.335 18.48 13.2199 17.9733 12.3082 16.96C11.3965 15.9467 10.9406 14.7067 10.9406 13.24C10.9406 12.7333 11.0037 12.24 11.1299 11.76C11.2562 11.28 11.4455 10.8267 11.698 10.4C11.9224 10 12.0347 9.58 12.0347 9.14C12.0347 8.7 11.8663 8.32 11.5297 8C11.1931 7.68 10.7863 7.52667 10.3094 7.54C9.83251 7.55333 9.46782 7.74667 9.21535 8.12C8.65429 8.86667 8.2335 9.66667 7.95297 10.52C7.67244 11.3733 7.53218 12.2667 7.53218 13.2C7.53218 15.5467 8.31766 17.54 9.88861 19.18C11.4596 20.82 13.3672 21.64 15.6114 21.64ZM6.73267 32C6.25578 32 5.85602 31.8467 5.53342 31.54C5.21081 31.2333 5.0495 30.8533 5.0495 30.4V25.12C3.45049 23.7333 2.20916 22.1133 1.32549 20.26C0.441832 18.4067 0 16.4533 0 14.4C0 10.4 1.47277 7 4.41832 4.2C7.36386 1.4 10.9406 0 15.1485 0C18.6551 0 21.762 0.98 24.4691 2.94C27.1762 4.9 28.9365 7.45333 29.75 10.6L31.9381 18.8C32.0784 19.3067 31.9802 19.7667 31.6436 20.18C31.3069 20.5933 30.8581 20.8 30.297 20.8H26.9307V25.6C26.9307 26.48 26.6011 27.2333 25.9418 27.86C25.2826 28.4867 24.4901 28.8 23.5644 28.8H20.198V30.4C20.198 30.8533 20.0367 31.2333 19.7141 31.54C19.3915 31.8467 18.9917 32 18.5148 32H6.73267Z" fill="#3DCFB6"/>
</svg>
