<?xml version="1.0" encoding="UTF-8"?><svg id="a" xmlns="http://www.w3.org/2000/svg" viewBox="0 0 108.9 37.61"><defs><style>.b{fill:#1d1d1b;}</style></defs><path class="b" d="M12.64,23.75c.09.32.17.65.27.97.44,1.47.93,3.08,1.8,4.36.81,1.2,2.38,1.3,3.29.08.91-1.22,1.17-3.14,1.5-4.59,1.12-4.85,1.68-9.93,3.38-14.63.88-2.44,2.16-4.79,3.95-6.69.47-.49.96-.95,1.51-1.35.18-.13.36-.25.54-.37.03-.02.05-.04.07-.05,1.38-.82,0-1.94-1.23-1.3-5.3,2.76-7.59,9.36-8.79,14.79-.83,3.75-1.45,7.54-2.41,11.26-.03.12-.07.25-.1.37-.28-.67-.52-1.35-.74-2.04-.51-1.6-.97-3.3-1.28-5.01,1.03-2.47,2.06-4.93,3.12-7.39.5-1.16,2.75-5.37.92-6.45-1.7-1-3.9.73-4.8,2.04-2.17,3.17-2.54,7.26-2.04,10.95.04.32.1.65.15.97-1.56,3.84-3.08,7.73-5.08,11.36-.69,1.25-1.44,2.6-2.53,3.54-.45.38-1.01.61-1.47.95-.03-.05-.05-.11-.06-.25-.06-1.05-2.67-.47-2.61.7.05.82.82,1.29,1.55,1.39,1.81.24,3.78-1.17,4.98-2.37,2.72-2.72,4.24-6.86,5.71-10.33.13-.31.26-.61.39-.92ZM16.38,7.12s0,0,0,.01c-.02-.01-.04-.03-.02-.04,0,0,.02.02.02.03ZM15.36,9.32c.25-.55.54-1.11.94-1.58.05-.06.09-.1.14-.14-.02.32-.11.73-.18,1.06-.45,1.85-1.32,3.57-2.1,5.3-.03.08-.07.15-.1.23.14-1.66.63-3.38,1.31-4.87Z"/><path class="b" d="M28.64,23.73s-.02-.04-.13-.03c0,0,.02,0,.02.01.04,0,.08.02.11.02Z"/><path class="b" d="M28.83,23.73s-.1-.02-.16,0c0,0,.02,0,.03,0,.04,0,.09,0,.14,0Z"/><path class="b" d="M26.12,19.28c-.52,1.06-.96,2.61-.81,3.93-.07.12-.14.25-.22.37-.23.36-.49.7-.77,1.03-.01.01-.01.02-.02.02-.04.04-.07.07-.11.11-.09.08-.17.16-.27.24-.06.05-.33.23-.12.1-.05.03-.1.06-.15.09,0,0,0,0,0,0-.03,0-.05-.01-.07-.01-.01,0,0,0-.02,0,0,0,0,0-.01,0-.09-.04-.17-.07-.26-.12,0,0-.02,0-.03-.02-.04-.03-.07-.05-.1-.08-.17-.16-.29-.3-.37-.5-.21-.49-.22-1.02-.13-1.54.19-1.03.63-2.02,1.08-2.96.28-.58.6-1.19.97-1.81.3-.5-.26-.72-.69-.71-.53,0-1.42.19-1.73.7-.39.66-.75,1.35-1.09,2.04-.52,1.06-1.07,2.22-1.19,3.4-.14,1.37.42,2.57,1.82,2.93,1.5.38,3.19-.26,4.31-1.26.05-.04.09-.09.13-.13.26.21.57.38.96.49,1.66.47,3.38-.21,4.79-1.08.46-.28,1-.84.6-1.4-.36-.51-1.29-.53-1.78-.23-.32.19-.64.38-.97.54-.1.05-.23.12-.35.16-.01,0-.01,0-.04.01-.07.02-.14.05-.22.07-.09.03-.22.04-.31.07-.02,0-.03,0-.05,0-.01,0-.04,0-.07,0,.03.01.04.03-.03.02-.04,0-.07,0-.11-.01-.02,0-.04,0-.05,0,0,0,.02,0,.03,0,0,0-.02,0-.03,0,0,0,0,0,0,0-.02,0-.04,0-.1-.02,0,0,0,0-.01,0-.03,0-.06-.01-.08-.01.02,0,.04,0,.06,0-.06-.03-.12-.05-.18-.08-.03-.03-.07-.06-.11-.08,0,0,0,0,0,0-.04-.05-.09-.17-.14-.21,0-.02-.01-.03-.02-.05-.04-.1-.06-.2-.09-.3-.02-.1-.03-.19-.05-.29,0-.01,0-.01,0-.03,0-.1,0-.2,0-.3.02-.66.17-1.35.36-1.92.1-.29.22-.58.36-.86.06-.12.13-.23.19-.35,0,0,0,0,0,0,.05-.07.1-.14.15-.21.14-.19.29-.37.45-.55.01-.01.04-.04.07-.07.08-.07.16-.14.24-.21.08-.06.16-.12.24-.18.02-.01.03-.02.04-.03.09-.05.18-.1.27-.15.03-.02.04-.02.06-.03.02,0,.04-.01.06-.02,0,0,.02.02.03.02.02.02.05.04.08.06.04.07.11.13.15.19.38.53,1.26.51,1.78.23.16-.09.32-.21.46-.36-.46,1.04-.66,2.17-.56,3.31.1,1.12.72,1.97,1.69,2.51,2.44,1.34,5.2-.52,6.34-2.7.71-1.36,1.06-2.92.86-4.45-.06-.42-.18-.83-.34-1.21.36,0,.72-.05,1.1-.08.48-.04,1.37-.33,1.48-.88.13-.59-.79-.58-1.13-.56-.18.01-.35.04-.53.06-.03,0-.05,0-.08,0,0,0,0,0-.01,0-.02,0-.01,0-.02,0-.01,0-.01,0-.04-.02-.12-.03-.25-.05-.37-.09-.25-.07-.5-.15-.76-.21-1.09-.27-2.18-.48-3.23.07-.29.15-.51.4-.5.74,0,.07.04.13.09.18-.3.03-.61.11-.88.21-1.2.46-2.2,1.44-2.83,2.56.02-.16,0-.33-.13-.5-1.02-1.41-2.87-1.33-4.26-.51-1.17.69-2.08,1.67-2.68,2.9ZM23.68,25.18c.1-.02.06-.01,0,0,0,0,0,0,0,0ZM23.61,25.19s-.02,0-.02,0c-.01,0-.01,0-.04.01.01,0,.01,0,.02,0-.05.02-.11.04-.11.04,0-.03.12-.06.15-.06ZM23.75,25.18s0,0-.02,0c.18-.01.08,0,.02,0ZM24.27,24.66s0,0,0,0h0ZM28.26,23.59h0s0-.01-.01-.02c0,0,0,.01.01.02ZM25.31,23.21s0,0,0,0c0,0-.01.01-.01.02,0-.01,0-.02.01-.03ZM36.52,22.74s0,0-.01,0c0,0,0,0,0,0,0,0,0,0,.01,0,0,0,0,0,0,0ZM36.48,22.76s0,0,.01,0c-.09.06-.06.04-.01,0ZM37.58,18.52c0-.07,0-.12-.02-.17,0,0,.01,0,.02.01,0,0,0,.16,0,.16ZM36.03,16.01s.01,0,.03.01c0,0,0,0,0,0-.02,0-.04-.01-.03-.02ZM36.24,16.52c.02.08.03.16.03.23,0,.3-.09.71-.2.92-.09.18-.22.34-.35.49-.2.08-.4.18-.54.31.22-.74.57-1.44,1.06-1.96ZM36.96,15.94s0,0,0,0c.11-.06.12-.07,0,0ZM35.63,18.26c-.29.3-.33.17,0,0h0ZM39.31,13.55s-.01,0-.02,0c-.14-.05-.06-.05.02,0ZM36.05,16.02s0,0,0,0c0,0,0,0,0,0ZM35.03,19.14c.13.25.47.33.78.34.7.02,1.41-.29,1.9-.79.39-.39.71-.82.92-1.29.04.34.05.68.02,1.02-.08.94-.33,1.91-.8,2.73-.32.57-.75,1.14-1.16,1.45.09-.07-.07.04-.13.09-.04-.01-.07-.03-.14-.06-.19-.08-.39-.18-.55-.3-.59-.42-.84-1.04-.91-1.74-.05-.47-.02-.96.07-1.46ZM30.4,17.79s-.01,0-.02,0c.01,0,.02,0,.02,0t0,0ZM30.38,17.78s0,0,0,0c-.04,0-.07,0-.06,0,0,0,.03,0,.06,0ZM29.48,18.43s-.08.07,0,0h0Z"/><path class="b" d="M28.77,12.9c.06-.17-.07-.28-.23-.33-.27-.08-.57-.06-.84,0-.34.06-.68.16-.99.32-.23.12-.46.26-.67.42-.39.29-.76.62-1.05,1-.21.27-.4.57-.54.88-.08.17.1.28.23.33.12.03.25.05.37.04.16,0,.31,0,.47-.03.34-.06.69-.15.99-.32.2-.11.43-.23.52-.44.08-.17.17-.32.27-.48.18-.25.39-.48.63-.69.15-.12.3-.24.47-.34-.03.02-.06.04-.09.05.1-.05.2-.11.28-.19.08-.06.15-.13.19-.22Z"/><path class="b" d="M65.56,19.38c.12.05.25.08.38.08.16.02.31.02.47-.01.12-.02.23-.05.35-.07.22-.06.44-.14.64-.26.08-.05.16-.11.24-.16.12-.09.21-.21.26-.36.02-.12.06-.22.1-.33.04-.06.07-.11.12-.16.01-.01.03-.02.05-.04.09-.07.14-.16.18-.27.03-.09.02-.18-.04-.25-.04-.09-.11-.15-.21-.18l-.24-.07c-.21-.03-.41-.03-.62,0-.12.02-.23.05-.35.07-.22.06-.44.14-.64.26-.09.06-.19.12-.27.19-.09.08-.18.17-.26.26-.04.05-.09.1-.12.15-.02.03-.04.07-.06.1-.05.09-.1.19-.14.29-.04.11-.07.22-.09.33-.03.09-.02.18.04.25.04.09.11.15.21.18ZM68.1,18.12s-.04.05-.07.07c0,0,0,0,0,0,0,0,0,0,0-.01,0,0,0,.01,0,.02-.06.04-.12.08-.18.12.1-.05.17-.12.25-.2Z"/><path class="b" d="M59.23,23.96s.07-.02.11-.03c.02,0,.04-.01.05-.02-.2.04-.22.06-.17.05Z"/><path class="b" d="M88.13,20.55c-.02-.13-.03-.26-.04-.39,0-.02,0-.03,0-.04,0-.08,0-.15,0-.23,0-.51.01-1.01.03-1.52.03-.67.1-1.34.13-2.01.02-.61-.67-.81-1.18-.75-.34.04-.7.14-.98.35-.1.08-.22.17-.31.29-.04-.45-.79-.4-1.1-.38-1.61.12-4.27.39-4.76,2.2-.29-1.18-1.77-1.18-2.83-.94-1.29.29-2.69,1.03-3.33,2.24-.33.62-.39,1.35-.28,2.06-.29.12-.58.23-.87.35-.02-1.3-.03-2.61-.03-3.91,0-1.16,0-2.33.09-3.49.08-.98.2-1.96.37-2.93,0-.03.01-.05.02-.08.71-.14,1.4-.61,1.27-1.21-.24-1.12-.68-2.01-2.03-1.67-1.03.26-1.38,1.05-1.63,1.99-.49,1.88-.66,3.87-.7,5.81-.04,2.15-.07,4.32-.03,6.49-.78.27-1.55.52-2.34.75-.22.06-.66.21-.93.44.1-.63.24-1.26.39-1.87.06-.23.11-.46.17-.69.02-.06.03-.13.05-.19,0-.01.01-.02.02-.04.03-.13.02-.14,0-.34-.01-.15-.19-.32-.3-.4-.21-.15-.47-.19-.72-.2-.53-.01-1,.2-1.38.57-.19.18-.23.46-.29.7-.06.22-.12.45-.17.67-.16.66-.3,1.33-.41,2-.04.28-.08.56-.11.84-.22.08-.43.17-.62.29-.39.24-.67.4-1.11.61-.17.08-.34.16-.51.24-.05.02-.15.06-.17.07-.11.04-.23.09-.35.13,0,0-.01,0-.02,0-.08.03-.18.05-.26.07-.03,0-.06.02-.09.02-.03,0-.06.01-.07.02-.05,0-.1.01-.12.01-.01,0-.02,0-.02,0-.06,0-.13,0-.17,0,0,0-.01,0-.02,0,0,0-.01,0-.02,0-.09,0-.18-.01-.27-.02-.02,0,0,0-.01,0-.01,0-.01,0-.03-.01-.08-.02-.15-.04-.23-.06-.08-.03-.18-.08-.3-.16-.23-.17-.37-.39-.46-.66-.07-.21-.09-.41-.11-.62.16-.03.3-.06.35-.08.81-.19,1.62-.49,2.33-.92.59-.35.99-.89,1.21-1.54.17-.49.3-1.14.09-1.64-.33-.8-1.37-.74-2.07-.61-1.12.21-2.2.71-2.97,1.56-.54.6-.95,1.32-1.23,2.08-.24.66-.4,1.39-.3,2.09.04.28.15.52.29.73-1.22,1.34-3.85,4.14-5.13,1.46-.59-1.24.06-2.49.7-3.57.26-.43,1.07-1.23.38-1.56-.87-.41-2.2.41-2.8.98-.98.92-1.8,2.05-2.61,3.11-.45.59-.9,1.18-1.37,1.76.09-.15.17-.28.25-.41.46-.79.99-1.54,1.48-2.31.5-.78.89-1.62,1.28-2.47,1.19-2.64,2.22-5.36,3.26-8.07,1.07-2.8,2.4-5.62,3.22-8.51.15-.52.52-1.56.02-2.01-.61-.56-1.95-.06-2.56.23-1.53.74-2.67,2.25-3.63,3.6-1.76,2.49-3.18,5.15-4.33,7.98-.23.56,2.29.3,2.58-.42,1.32-3.24,2.97-6.54,5.3-9.2.05-.05.1-.1.15-.15-.17.82-.53,1.65-.83,2.4-.41,1.03-.81,2.07-1.2,3.1-1.56,4.08-3.02,8.25-4.9,12.21-.81,1.7-2.05,3.15-2.86,4.85-.24.5-.62,1.31-.2,1.82.46.55,1.46.29,2.03.1,1.66-.56,2.81-2.17,3.84-3.51.17,1.13,1.02,2.1,2.19,2.34,2.63.54,5.22-1.07,7.14-2.88,1.1.22,2.31.03,3.37-.29.87-.26,1.7-.62,2.51-1.03,0,.03,0,.07,0,.1.07.56.43.98.96,1.16.66.22,1.42.04,2.02-.27.58-.3.95-.76,1.19-1.36.13-.32.23-.66.32-1,.02-.09,0-.19-.03-.28.54-.16,1.07-.33,1.61-.5.03.68.06,1.37.11,2.04.08,1.06,2.69.47,2.61-.7-.01-.19-.03-.58-.04-.99-.01-.43-.02-.87-.03-1.3.41-.15.81-.31,1.21-.47.08.17.16.34.26.49.64,1.06,2.28,1.58,3.46,1.56,1.43-.02,2.94-.74,3.97-1.7.52-.48,1.13-1.05,1.27-1.77.15-.74-.19-1.64-.28-2.38-.05-.45-.17-1,.09-1.42.01-.02-.22.11-.05,0,.05-.03.3-.08.34-.09.46-.09.94-.1,1.4-.13.33-.02,1.01-.21,1.33-.54-.03.67-.1,1.35-.13,2.02-.02.53-.04,1.06-.03,1.59,0,.51.03,1.07.17,1.56.17.59,1.05.6,1.52.46.44-.13,1.27-.55,1.09-1.16-.06-.19-.08-.39-.11-.58ZM73.44,9.75c.02-.13.06-.09,0,0h0ZM71.52,10.05c-.31-.11,0-.18,0,0h0ZM54.01,5.94c.07-.04.15-.09.19-.14-.04.06-.11.1-.19.14ZM52.15,23.86c.23-.21.32-.13,0,0h0ZM60.15,21.25s-.01,0,0,0c0,0,0,0-.01,0,0,0-.01,0-.02-.01.01,0,.03,0,.03,0ZM60.11,21.24s0,0,.01.01c-.14,0-.07-.02-.01-.01ZM59.77,22.26c.15-.25.3-.45.49-.67.02-.02.04-.04.07-.07.13.34.1.72.02,1.05-.06.26-.15.51-.28.74-.05.09-.1.18-.16.26-.02.02-.03.04-.04.05-.03.03-.06.06-.1.1-.02.01-.05.04-.06.05,0,0,0,0,0,0-.04.02-.07.04-.11.06,0,0,0,0,0,0-.07.02-.13.05-.2.07.02,0,.03,0,.05,0-.03,0-.07.02-.1.03-.01,0-.03.01-.04.02-.03,0-.05.01-.07.02,0,0,0,0,0,0-.06.02-.11.03-.17.04,0,0-.01,0-.01,0,0-.01,0-.03,0-.04.15-.6.4-1.18.71-1.71ZM60.72,26.48s.07-.02.15-.03c0,.02-.08.03-.15.03ZM67.23,21.36c.03-.07-.01,0-.06.07.03-.07.07-.13.1-.2-.02.07-.04.15-.04.13ZM66.59,25.91s-.01-.02-.02-.05c.02.02.03.02,0,0,0,0,0-.01,0-.02.03.03.06.07.03.07ZM76.32,19.12c.2-.34.5-.45.76-.7.01-.01.03-.02.04-.02,0,.03.11.1.17.23.45.9-.39,1.44-1.24,1.8-.02-.47.05-.93.27-1.3ZM78.64,23.24c-.31.13-.74-.06-1.17-.27-.36-.17-.69-.42-.87-.71-.11-.18-.21-.4-.29-.62.17-.07.34-.14.51-.21,1.11-.47,2.65-1.06,3.05-2.28.09.78.35,1.57.32,2.33-.03.7-.93,1.51-1.56,1.77Z"/><path class="b" d="M88.48,13.97s0-.01.01-.02c0,0,0,0,0,0,0,0,0,0,0,0,0,0,0,0,0,0,0,0,.09-.19.09-.19,0,0,0,0,0,0,0-.02,0-.05,0-.07,0-.03,0-.07,0-.1.03-.1.02-.19-.04-.26-.04-.1-.11-.16-.22-.2-.12-.06-.25-.09-.38-.09-.16-.02-.32-.02-.47,0-.12.02-.24.05-.35.07-.22.06-.44.15-.63.26l-.24.17c-.12.1-.21.22-.26.37,0,.04,0,.09,0,.13,0,.01,0,.02,0,.03,0,.02-.02.03-.02.05-.03.1-.02.19.04.26.04.1.11.16.22.2.12.06.25.09.38.09.16.02.32.02.47,0,.12-.02.24-.05.35-.07.22-.06.44-.15.63-.26l.24-.17c.12-.1.21-.22.26-.37-.03.06-.06.12-.09.18Z"/><path class="b" d="M107.81,16.71c-.45.07-1.3.27-1.52.75-.81,1.77-2.51,3.24-4.06,4.32-1.8,1.25-4,2.42-6.2,2.68-1.03.12-3.88.2-3.27-1.49.37-1.02,1.1-2,1.77-2.9,1.09-.29,2.21-.53,3.3-.6.5-.03,1.43-.18,1.74-.64.31-.46-.27-.51-.63-.49-1.2.08-2.39.31-3.56.59.93-1.26,1.9-2.51,2.96-3.67.69-.76,2.59-2.19,1.9-3.4-.5-.89-1.59-1.08-2.52-1.07-1.04,0-2.17.15-3.27.39,0-.03.01-.05.01-.08.25-2.04-.12-4.21-.81-6.21.02,0,.04-.01.06-.02.17-.06,1.16-.51.76-.8l-1.68-1.21c-.4-.28-2.81.2-2.53.81.58,1.23,1,2.56,1.3,3.88.35,1.55.39,3.02.18,4.5-.34.15-.66.3-.97.47-.91.5-2.1,1.32-2.38,2.41-.17.64,2.4.27,2.58-.43.07-.29.23-.55.42-.78-.03.11-.05.22-.08.33-.59,1.96-1.38,3.87-2.19,5.75-.13.29-.41.71-.35,1.04.08.46.6.58,1,.59.61.01,1.19-.21,1.74-.43-.21.09,0,0,.1-.03-.43.63-.84,1.26-1.19,1.93-.2.38-.42.82-.38,1.27.06.83.98,1.09,1.67,1.25,4.19.94,8.81-1,12.25-3.29,1.88-1.26,3.95-3,4.92-5.11.21-.46-.89-.34-1.06-.32ZM90.38,20.43s0,0,0,0c-.38.16-.74.16,0,0ZM91.55,20.01s-.06.02-.1.03c.09-.53.62-1.54.69-1.71.31-.75.62-1.51.91-2.27.46-1.23.92-2.5,1.2-3.8.55-.14,1.11-.25,1.65-.3.44-.04.86-.06,1.24.18,1.35.86-.1,2.12-.83,2.88-1.2,1.26-2.27,2.64-3.31,4.03-.17.23-.34.46-.51.68-.32.1-.64.18-.96.29Z"/><path class="b" d="M85.09,23.69c-6.07,1.75-12.13,3.54-18.22,5.24-3.81,1.06-7.63,2.09-11.48,3.02-3.03.73-6.13,1.53-9.24,1.76-3.55.27-7.44-1.28-10.1-3.51-.92-.77-2.95-.07-1.7.98,2.71,2.27,6.31,3.9,9.82,4.3,3.15.36,6.36-.41,9.41-1.08,7.49-1.64,14.87-3.78,22.23-5.92,3.51-1.02,7.02-2.03,10.53-3.04,1.47-.42-.17-2.07-1.24-1.76Z"/><path class="b" d="M42.05,26.95c.78-.17-.47-2.28-1.16-2.13-4.24.95-8.49,1.88-12.72,2.85-4.77,1.09-9.68,2.06-14.31,3.68-2.26.79-4.55,2.21-6.02,4.15-.5.66,1.1,2.49,1.44,2.04,2.7-3.57,7.22-4.61,11.31-5.65,4.81-1.23,9.66-2.31,14.5-3.39,2.32-.52,4.64-1.03,6.96-1.55Z"/></svg>