<?xml version="1.0" encoding="UTF-8"?><svg id="a" xmlns="http://www.w3.org/2000/svg" viewBox="0 0 112.09 33.42"><defs><style>.b{fill:#1d1d1b;}</style></defs><path class="b" d="M13.79,21.31c.39-.55.77-1.1,1.16-1.66.01.36.03.71.05,1.07.1,1.57.21,3.26.76,4.75.49,1.34,1.63,1.86,2.93.96,1.22-.84,1.89-2.67,2.5-3.95,2.15-4.48,3.78-9.26,6.32-13.54,1.36-2.29,3.08-4.42,5.26-5.97.6-.42,1.22-.81,1.88-1.11.08-.03.43-.18.5-.21.04-.01.07-.02.11-.03.44-.12,1.26-.53,1.1-1.12-.16-.59-1.08-.54-1.51-.42-5.98,1.64-9.68,7.89-12.05,13.13-1.56,3.46-2.96,7.02-4.71,10.39-.01.02-.03.05-.04.07-.18-.83-.27-1.71-.35-2.51-.17-1.71-.24-3.49-.18-5.25,1.26-1.84,2.52-3.67,3.85-5.46,1.19-1.59,2.52-3.28,3.19-5.18.19-.56.39-1.28-.04-1.78-1.23-1.43-3.98.05-4.99.96-2.86,2.57-4.2,6.57-4.5,10.3-.03.39-.05.78-.07,1.17-2.36,3.46-4.69,7.01-7.47,10.15-1.03,1.17-2.12,2.33-3.58,2.95-.42.18-1.03.41-1.22.27-.07-.06-.03-.27-.03-.29.18-1.16-2.46-.76-2.62.26-.52,3.25,5.08,1.11,6.17.45,3.18-1.9,5.48-5.47,7.58-8.4ZM20.6,6.21c.34-.46.73-.93,1.2-1.28.12-.09.22-.15.31-.19.01.07.02.16-.01.28-.11.48-.34.93-.58,1.37-.98,1.84-2.22,3.56-3.48,5.27.03-.12.04-.23.07-.35.42-1.8,1.39-3.62,2.49-5.1Z"/><path class="b" d="M29.34,18.28c-.81.94-1.83,2.65-1.92,4.14-.02.03-.04.05-.07.08-.04.04-.08.09-.11.13.09-.1-.09.09-.11.11-.3.3-.69.61-.94.76,0,0-.02,0-.03.02,0,0-.02,0-.03,0-.29-.05-.66-.24-.91-.5-.71-.78-.42-1.95,0-2.79.45-.92,1.07-1.75,1.71-2.55.4-.5.82-1,1.26-1.47.28-.31-.97-.19-1.02-.18-.53.11-1.16.26-1.54.67-.46.49-.9,1.01-1.31,1.54-.69.88-1.4,1.81-1.83,2.86-.43,1.05-.46,2.35.59,3.03,1.28.83,3.21.28,4.46-.31.04-.02.08-.05.13-.07.2.39.52.73,1,.98,1.5.78,3.34.42,4.86-.11.45-.16,1.26-.53,1.09-1.15-.15-.57-1.08-.61-1.52-.45-.36.13-.73.24-1.1.33-.06.01-.12.03-.18.04,0,0,0,0,0,0-.14.02-.29.04-.43.05-.02,0-.08,0-.12,0-.1,0-.19-.02-.29-.03,0,0,0,0-.02,0-.07-.02-.16-.06-.24-.08,0,0,0,0,0,0-.05-.03-.1-.06-.15-.09-.04-.03-.09-.06-.13-.09,0,0,0,0,0,0-.01-.01-.08-.07-.1-.09-.04-.05-.08-.1-.11-.15-.01-.01-.01-.01-.02-.02-.03-.09-.07-.17-.09-.27-.02-.09-.03-.17-.04-.26,0,0,0,0,0,0,0,0,0,0,0,0,0-.06,0-.12,0-.18.02-.28.07-.55.15-.82.18-.64.53-1.33.92-1.92.03-.04.15-.21.16-.23.09-.11.18-.22.27-.33.09-.1.18-.2.27-.29.05-.05.1-.1.15-.15,0,0,0,0,0-.01,0,0,0,0,0,0,.18-.14.36-.26.54-.38.01,0,.03-.01.04-.02.1-.05.21-.1.31-.15.02,0,.05-.02.07-.03-.03,0-.05.01-.09.02.1-.03.2-.07.3-.09.02,0,.04-.01.06-.02.02,0,.03,0,.04,0,0,0,.01,0,.02,0,.02,0,.02,0,.03,0,.01,0,.02,0,.03,0,0,0,0,0,0,0,.03.03.09.06.13.08.03.03.06.07.09.1.05.06.09.14.14.2,0,.02.02.04.03.06.25.56.99.61,1.52.45.38-.11,1.34-.58,1.09-1.15-1.31-2.99-5.5-.97-7.01.8ZM25.99,23.61s.01,0,.02,0c0,0-.02,0-.02.01-.06.02-.16.04,0,0ZM33.28,17.72s-.03,0-.05,0c0,0,.02,0,.05,0ZM33.69,18.06s0,.01,0,.01c-.02-.03-.03-.05,0-.01Z"/><path class="b" d="M32.96,17.83c.27-.07.13-.04,0,0h0Z"/><path class="b" d="M35.81,24.51c1.19,1.02,2.88.77,4.22.19,1.09-.47,2.07-1.22,2.79-2.17.88-1.16,1.47-2.53,1.55-4,.02-.28,0-.57-.04-.85.19.03.38.05.57.08.59.08,1.36-.15,1.84-.49.43-.3.33-.58-.17-.65-.18-.02-.37-.05-.55-.06-.02,0-.1-.01-.13-.02-.06-.01-.12-.03-.17-.05-.55-.18-1.06-.53-1.59-.77-.37-.17-.75-.35-1.14-.43-.41-.09-.84-.03-1.24.07-.3.08-1.18.32-1.18.75,0,.02.02.04.02.06-.05,0-.1,0-.15.01-1.47.16-2.91.93-3.93,1.98-.9.92-1.47,2.1-1.69,3.36-.21,1.16.07,2.18.99,2.96ZM39.13,24.05s0,0,0,0c.05-.02.04,0,0,0ZM43.2,15.48c-.08-.04,0-.08,0,0h0ZM40.42,19.66s0-.02,0-.03c.01-.02,0,0,0,.03ZM39.35,17.33c-.07,0-.05-.04,0,0h0ZM37.63,20.23c.32-1.05.94-2.02,1.84-2.67.09.23.14.46.09.73-.08.4-.26.82-.56,1.11-.05.04-.09.08-.14.11-.43.11-.93.31-1.03.65-.1.31.24.4.49.43.66.06,1.35-.17,1.93-.5.03,0,.05-.02.07-.04.06-.04.13-.07.19-.11.5-.32.93-.72,1.24-1.2.05,1.04-.26,2.1-.73,3.01-.44.85-1.05,1.63-1.84,2.17.02-.01-.1.06-.17.1-.51-.19-.98-.55-1.28-1.02-.55-.85-.37-1.86-.09-2.78Z"/><path class="b" d="M28.85,15c.32.11.67.13,1,.03.32-.1.64-.25.85-.53.08-.1.16-.19.25-.29.15-.13.3-.25.46-.36.18-.1.35-.19.54-.27.31-.08.64-.27.84-.52.16-.2.29-.52.2-.77-.21-.64-.99-.75-1.56-.6-.37.1-.75.26-1.09.44-.71.38-1.37.89-1.86,1.53-.16.22-.28.5-.2.77.07.26.31.48.56.57Z"/><path class="b" d="M69.36,17.12c.12.05.25.07.38.07.16.02.31.01.47-.01l.35-.07c.22-.06.44-.14.64-.26.08-.05.16-.11.24-.16.12-.09.21-.21.27-.35,0-.02.02-.04.03-.06.03-.05.07-.11.11-.15,0,0,0,0,.01,0,.02-.01.05-.02.07-.04.11-.07.21-.15.29-.25.07-.08.11-.16.1-.26.02-.09-.01-.16-.09-.23l-.17-.1c-.17-.06-.34-.09-.52-.08-.11,0-.22.02-.33.02-.24.03-.47.1-.69.19,0,0,0,0-.01,0-.11.05-.22.1-.33.16-.12.06-.24.15-.35.23-.05.04-.1.08-.15.12-.11.11-.24.22-.33.36-.07.1-.12.2-.17.3-.03.05-.05.11-.07.17-.03.09-.02.17.04.24.04.09.11.15.21.18ZM71.81,16.15s-.05.04-.08.05c-.07.03-.13.06-.2.1.1-.04.19-.09.28-.15Z"/><path class="b" d="M58.91,3.39c-.76,1.28-1.63,2.49-2.44,3.74-1.69,2.58-3.36,5.18-5.09,7.73-1.29,1.9-2.58,3.77-4.23,5.39-.86.85-2.35,2-2.66,3.24-.26,1.02.72,1.14,1.5,1.02,1.96-.3,3.63-1.77,5.11-3.05-.13.44-.18.9-.07,1.39.27,1.27,1.24,2.01,2.5,2.17,2.12.27,4.3-.55,6.18-1.66.26.24.57.45.93.59,1,.38,2.07.24,3.09.06.48-.09.96-.19,1.44-.28.07-.01.13-.02.2-.04.13-.02.27-.04.4-.06.15-.02.3-.03.46-.05,0,.46.15.87.57,1.14.57.37,1.35.31,1.97.13,1.02-.28,1.61-1.14,2.07-2.04.02-.04.03-.08.04-.13.6-.05,1.19-.1,1.78-.17-.13.66-.26,1.31-.35,1.97-.17,1.18,2.48.77,2.63-.26.1-.69.21-1.38.34-2.07.47-.07.94-.15,1.4-.23.03.19.08.37.13.55.36,1.15,1.7,2.05,2.84,2.31,1.44.32,3.08-.21,4.31-.94.59-.35,1.23-.77,1.6-1.37.42-.67.28-1.54.34-2.3.04-.48.14-.93.21-1.39,0,.01,0,0,.02-.03.05-.01.1-.03.16-.03.43,0,.87.08,1.29.14.62.09,1.38-.03,1.84-.49.36-.36.33-.89-.26-.97-1.92-.27-4.93-.59-5.7,1.76-.26.79-.22,1.71-.25,2.53-.04.84-.59,1.28-1.37,1.54-.87.28-1.99-.45-2.36-1.24-.07-.15-.13-.33-.17-.52.04,0,.07-.01.11-.02,1.52-.29,3.67-.67,4.1-2.46.33-1.39-.84-1.96-2.03-1.99-1.36-.03-2.87.47-3.86,1.42-.57.55-.88,1.3-.99,2.08-.36.06-.72.11-1.07.17.3-1.46.64-2.91.95-4.35.29-1.3.59-2.59,1.01-3.86.2-.6.42-1.19.65-1.78.73-.02,1.57-.42,1.57-.99,0-.6.09-1.49-.52-1.85-.77-.45-1.88-.01-2.42.59-.49.55-.78,1.29-1.05,1.95-.38.92-.71,1.85-1.01,2.8-.8,2.55-1.27,5.22-1.79,7.84-.79.09-1.58.17-2.38.22-.36.02-1,.22-1.3.57-.01,0-.03,0-.04.01.04-.11.08-.22.12-.33.22-.56.47-1.11.73-1.65.1-.22.21-.44.32-.65.08-.15.32-.47,0-.04,0,0,0,0-.01,0,.04-.06.1-.1.13-.16.05-.11.09-.2.11-.33.06-.38-.25-.67-.57-.78-.42-.16-.93-.09-1.33.11-.58.28-.8.85-1.06,1.39-.31.63-.59,1.27-.85,1.92-.03.08-.06.16-.09.24-.88.08-1.75.22-2.61.39-.32.06-.67.09-.98.19,0,0,0,0,.02,0-.07.01-.15.02-.23.03-.17.02-.33.02-.5.03-.03,0-.07,0-.1-.01-.02,0-.04,0-.05,0-.01,0-.04,0-.07-.01-.03,0-.06-.02-.08-.01.01,0,.02,0,.03,0-.07-.03-.14-.06-.2-.08,0,0,0,0-.01,0,0,0,0,0-.02-.01-.05-.04-.1-.08-.16-.12-.01-.01-.02-.02-.03-.04-.05-.06-.08-.12-.12-.18.03.05.05.07.06.09-.01-.02-.05-.08-.06-.12-.01-.04-.02-.09-.03-.14.09.01.18.02.27.02.73-.01,1.48-.13,2.16-.39.85-.32,1.45-.94,1.9-1.71.34-.58.56-1.28.44-1.96-.18-.99-1.22-1.31-2.09-1.32-2.07,0-3.75,1.63-4.72,3.31-.41.71-.69,1.53-.62,2.36.02.19.07.36.12.53-1.46,1.03-4.2,2.72-5.23.38-.59-1.33.06-2.48.94-3.48.24-.27,1.55-1.27,1.19-1.7-.53-.64-2.32.27-2.84.59-1.18.72-2.25,1.65-3.3,2.54-.72.61-1.43,1.24-2.18,1.82-.16.13-.33.25-.5.38.18-.56.73-1.07,1.11-1.49.62-.68,1.31-1.29,1.95-1.95.65-.67,1.21-1.42,1.76-2.17,1.66-2.25,3.19-4.59,4.72-6.93,1.65-2.53,3.48-5.01,4.97-7.64.27-.48,1-1.58.6-2.16-.4-.58-1.58-.27-2.11-.12-1.83.51-3.39,1.79-4.77,3.05-2.24,2.05-4.15,4.37-5.86,6.88-.28.42.95.32,1.06.3.52-.08,1.21-.28,1.52-.74,1.59-2.33,3.38-4.51,5.46-6.42.52-.47,1.03-.95,1.6-1.36.17-.13.35-.25.53-.37,0,.06,0,.1,0,.11-.13.54-.47,1.06-.75,1.53ZM80.88,18.72c.27.42-.1.92-.47,1.07-.35.14-.77.21-1.18.27.06-.44.21-.84.45-1.12.26-.31.93-.64,1.2-.21ZM67.81,23.3s-.02.03-.04.04c-.05.06-.12.09.04-.04ZM61.77,21.89c.06.05.05.06,0,0h0ZM63.4,18.34s-.01,0-.02.01c0,0,.01,0,.02-.01ZM62.83,18.82s.01-.01.02-.02c0,0,0,0,.01,0,.07-.06.13-.12.2-.17.03-.03.18-.16.29-.24,0,0,.04-.01.1-.04.08-.04.16-.08.24-.12.01,0,.03,0,.05-.01,0,.05-.01.1-.02.16,0,.02,0,.04-.01.06-.02.11-.01.08.03-.09.01.1-.11.31-.15.4-.03.07-.08.19-.13.27,0,0-.02.01-.03.03-.05.06-.09.13-.15.19-.03.03-.06.07-.09.1-.01.01-.03.02-.04.03-.09.03-.19.05-.28.07,0,0-.02,0-.03,0-.06,0-.15.02-.18.03-.12.01-.25.02-.38.03.08-.11.16-.22.25-.33.09-.11.19-.22.29-.33Z"/><path class="b" d="M61.67,21.76s0,.01,0,0h0Z"/><path class="b" d="M63.15,22.1s0,0,.01,0c.11-.02.3-.1-.01,0Z"/><path class="b" d="M62.2,22.12s.04,0,.07.01c.04,0,.01-.03-.11-.02,0,0,.01,0,.02,0,.01,0,.02,0,.03,0Z"/><path class="b" d="M88.88,20.73c-.26,1.01-.55,2.04-.47,3.09.02.23.36.42.54.47.3.1.69.08.99,0,.56-.17,1.13-.52,1.09-1.16.02.32,0,.02,0-.06,0-.11.01-.23.02-.34.02-.25.06-.5.11-.75.11-.52.23-1.04.37-1.55.17-.66.38-1.3.55-1.96.06-.23-.12-.48-.3-.59-.24-.15-.61-.2-.88-.17-.59.07-1.29.37-1.45,1-.17.68-.39,1.34-.57,2.02Z"/><path class="b" d="M90.41,16.67c.08.07.18.12.29.14.13.04.27.06.41.05.11,0,.22-.02.33-.02.24-.03.47-.1.69-.19l.3-.14c.15-.08.29-.19.4-.33-.05.05-.1.1-.15.15,0,0,0,0,.01,0,0,0,.09-.09.14-.14,0,0,0,0,0,0,0,0,0,0,0-.01,0,0,.01-.02.02-.02,0,0,0,0,0,0,0,0,0,0,0,0,0,0,0,0,0,0,0-.01.09-.16.09-.18,0,0,0,0,0,0,0,0,0,0,0,0,0,0,0,0,0-.01,0-.01,0-.03.01-.04,0-.03.02-.06.02-.09.03-.09.02-.17-.04-.24-.04-.09-.11-.15-.21-.18-.12-.05-.25-.08-.38-.08-.16-.02-.31-.01-.47.01l-.35.07c-.22.06-.44.14-.64.26-.08.05-.16.11-.24.16-.12.09-.21.21-.27.35,0,.02-.01.05-.02.07-.04.06-.07.13-.06.21-.02.09.01.17.09.23Z"/><path class="b" d="M109.71,23.34c-.08.11-.17.21-.26.3-.11.12-.23.24-.35.36-.22.22-.23.22-.37.34-1.07.89-2.26,1.59-3.54,2.14-2.01.86-4.34,1.47-6.54,1.42-.91-.02-1.8-.17-2.66-.48-.62-.23-1.43-.45-1-1.17.01-.01.03-.03.06-.08.08-.09.15-.18.23-.27.22-.25.45-.48.68-.72.34-.34.69-.66,1.04-.99,1.34-.08,2.69-.09,3.99.11.6.09,1.44-.21,1.7-.79.27-.6-.24-1-.79-1.08-.9-.14-1.81-.17-2.73-.16.88-.75,1.77-1.47,2.71-2.14,1.04-.74,3.25-1.84,2.85-3.45-.24-.95-1.19-1.55-2.07-1.78-1.02-.26-2.08-.28-3.12-.27-.08,0-.15,0-.23,0,.54-1.77.66-3.71.49-5.61.75-.23,1.36-.81.86-1.36-.46-.51-.93-1.03-1.39-1.54-.66-.73-2.77-.27-2.5.92.31,1.36.45,2.78.43,4.17-.02,1.32-.25,2.52-.65,3.67-.28.06-.57.13-.84.22-1.16.38-2.55,1.06-3.13,2.22-.64,1.27,1.99,1.21,2.48.24,0-.02.01-.02.02-.03.1-.12.25-.28.28-.3.07-.06.15-.11.24-.16-.05.1-.09.19-.15.29-.99,1.74-2.14,3.37-3.3,5.01-.26.36-.53.71-.47,1.18.07.55.52.89,1.03,1.01.34.08.68.04,1.02-.03.03,0,.05,0,.07-.01-.2.2-.39.4-.58.61-.31.35-.58.73-.75,1.11-10.2,0-20.39-.02-30.59.02-6.82.03-13.65.08-20.47.21-5.29.1-10.61.17-15.88.62-4.39.37-8.72,1.32-12.89,2.71-2.34.78-4.77,1.68-6.9,2.95-.73.43-.68.73.2.68,1.08-.07,2.45-.44,3.39-1,.39-.23.81-.44,1.22-.64.08-.04.77-.36,1.23-.55.64-.27,1.09-.44,1.8-.69,2.85-.99,5.84-1.55,8.84-1.79,5.03-.42,10.1-.49,15.14-.59,11.81-.23,23.63-.24,35.44-.23,5.8,0,11.59,0,17.39,0,.66,0,1.33-.13,1.98-.31.13.32.38.63.82.9,3.7,2.24,8.86,1.1,12.61-.38,2.16-.85,4.64-2.19,6.07-4.1.98-1.3-1.49-1.58-2.16-.69ZM96.79,19.53c.64-1,1.29-2.03,1.82-3.12.55-.01,1.1,0,1.64.05.53.04,1.17.11,1.48.34.01,0,.01,0,.01,0,0,0,.02.02.04.05.06.06.1.13.16.2.15.19.19.19.2.37,0-.04-.03.12-.14.27-.3.4-.8.66-1.2.93-1.4.93-2.7,2-3.97,3.1-.27.23-.53.46-.8.69-.36.03-.72.04-1.08.08-.06,0-.13.02-.19.02.19-.27.38-.54.57-.81.5-.72.99-1.44,1.46-2.18ZM94.35,23.08c-.04.09-.14.19,0,0h0ZM93.53,22.7c-.36.08-.12-.12.24-.04-.08.01-.16.02-.24.04Z"/></svg>