<?xml version="1.0" encoding="UTF-8"?><svg id="a" xmlns="http://www.w3.org/2000/svg" viewBox="0 0 43.14 34.62"><defs><style>.b{fill:#1d1d1b;}</style></defs><path class="b" d="M13.61,20.98c.44-.61.87-1.23,1.3-1.85.01.43.03.86.06,1.29.1,1.57.21,3.26.76,4.75.14.39.32.88.73,1.05.64.27,1.73-.14,2.28-.48,1.16-.73,1.78-2.43,2.35-3.61,2.17-4.47,3.8-9.24,6.29-13.54,1.37-2.36,3.1-4.57,5.3-6.21.63-.47,1.3-.89,2.01-1.23.33-.16.29-.13.5-.21,0,0,.01,0,.02,0,.32-.09,1.23-.36,1.13-.74-.11-.39-1.22-.11-1.41-.06-6.02,1.65-9.71,7.61-12.13,12.93-1.56,3.43-2.95,6.95-4.66,10.3-.03.05-.05.1-.08.15-.2-.83-.29-1.71-.37-2.52-.18-1.82-.28-3.72-.2-5.61,1.23-1.8,2.46-3.59,3.76-5.34,1.19-1.6,2.57-3.28,3.26-5.18.17-.47.42-1.18,0-1.59-.35-.34-1.09-.31-1.53-.28-1.25.09-2.49.61-3.45,1.41-2.86,2.38-4.18,6.37-4.5,9.96-.04.49-.08.98-.1,1.47-2.34,3.44-4.66,6.95-7.39,10.09-.95,1.08-1.98,2.28-3.26,2.98-.45.24-1.18.76-1.56.18-.1-.15-.09-.64-.11-.5.1-.62-2.47-.18-2.57.46-.46,2.9,5.26.5,6.15,0,3.13-1.76,5.39-5.24,7.43-8.07ZM20.36,5.98c.4-.59.84-1.16,1.38-1.63.07-.06.17-.14.25-.22.03.02.06.04.07.08.22.57-.19,1.3-.43,1.8-.85,1.74-2.07,3.28-3.21,4.83-.17.23-.33.47-.5.7.04-.21.08-.42.13-.62.42-1.75,1.31-3.45,2.31-4.94Z"/><path class="b" d="M28.05,10.98c-.36.52.31.82.73.85.6.05,1.37-.22,1.72-.73,1.58-2.31,3.34-4.47,5.4-6.36.48-.44.95-.88,1.47-1.27.17-.13.35-.23.53-.35-.13.31-.26.62-.44.92-.74,1.23-1.57,2.41-2.36,3.61-1.69,2.58-3.36,5.18-5.09,7.74-1.3,1.92-2.59,3.82-4.25,5.45-.95.93-2.2,1.98-2.71,3.24-.39.98.22,1.64,1.23,1.62,1.94-.03,3.77-1.76,5.2-3.01-.04.26-.05.53-.01.81.18,1.32,1.07,2.27,2.36,2.58,2.68.65,5.6-.91,7.71-2.43.41-.29.71-.75.21-1.1-.47-.33-1.43-.08-1.85.22-1.24.89-4.26,3.02-5.48,1.1-.76-1.2-.13-2.41.7-3.36.35-.4,1.6-1.29,1.39-1.93-.33-1.04-2.18-.22-2.74.11-1.2.72-2.29,1.68-3.36,2.58-.7.6-1.39,1.21-2.12,1.78-.03.02-.06.05-.09.07.1-.12.19-.24.29-.35.63-.69,1.31-1.32,1.96-1.98.64-.65,1.2-1.37,1.75-2.09,1.7-2.27,3.25-4.65,4.8-7.02,1.66-2.54,3.46-5.03,4.99-7.65.35-.6,1.08-1.69.81-2.45-.29-.8-1.43-.71-2.09-.55-1.81.45-3.39,1.8-4.72,3.03-2.25,2.07-4.2,4.41-5.92,6.93ZM24.67,24.11c-.07.03-.12.06-.14.08.03-.05.08-.07.14-.08ZM38.98,2.5s.05,0,0,0h0ZM38.19,2.29s-.02-.02,0-.03c0,0,0,0,0,.03Z"/><path class="b" d="M41.17,27.01c-4.91,0-9.82-.03-14.73.03-3,.03-6.01.09-9.01.24-2.23.11-4.58.14-6.76.69-2.61.66-5.16,2.46-6.75,4.63-.48.66,1.87,2.51,2.32,1.9,1.41-1.92,3.55-3.51,5.8-4.27,2.04-.68,4.32-.72,6.45-.84,5.47-.31,10.95-.31,16.42-.3,2.63,0,5.27,0,7.9,0,1.06,0-.88-2.07-1.65-2.07Z"/></svg>