<svg width="18" height="24" viewBox="0 0 18 24" fill="none" xmlns="http://www.w3.org/2000/svg">
<path d="M0 19.3376L2.95682 0.460691C3.00231 0.187771 3.27525 -0.0396618 3.54818 0.00582481C3.73014 0.0513114 3.86661 0.142285 3.95759 0.278744L7.00539 6.01005L8.23361 3.69024C8.37008 3.41732 8.6885 3.32634 8.96144 3.4628C9.05242 3.50829 9.1434 3.59926 9.18889 3.69024L17.4225 19.3831H0V19.3376Z" fill="#3DCFB6" fill-opacity="0.5"/>
<path d="M10.1897 12.0142L7.00539 6.01001L0 19.3376L10.1897 12.0142Z" fill="#3DCFB6" fill-opacity="0.5"/>
<path d="M17.4225 19.3376L15.148 5.32775C15.1025 5.00934 14.8296 4.8274 14.5112 4.87288C14.4202 4.87288 14.2837 4.96386 14.1927 5.00934L0 19.3376L7.91518 23.7953C8.41557 24.0682 9.00693 24.0682 9.50732 23.7953L17.4225 19.3376Z" fill="#3DCFB6"/>
</svg>
