<svg width="19" height="19" viewBox="0 0 19 19" fill="none" xmlns="http://www.w3.org/2000/svg">
<path d="M2.12333 9.72904L9.37433 16.9804C9.50433 17.1102 9.57233 17.2632 9.57833 17.4394C9.58433 17.6154 9.51378 17.7769 9.36667 17.924C9.21978 18.0658 9.06256 18.138 8.895 18.1407C8.72745 18.1432 8.57022 18.0709 8.42333 17.924L0.315667 9.81638C0.199222 9.69993 0.117556 9.58105 0.070667 9.45971C0.0235559 9.33838 0 9.20593 0 9.06238C0 8.91882 0.0235559 8.78638 0.070667 8.66504C0.117556 8.54371 0.199222 8.42482 0.315667 8.30838L8.42333 0.200712C8.548 0.0760454 8.69967 0.0093787 8.87833 0.000712032C9.057 -0.00773241 9.21978 0.0589342 9.36667 0.200712C9.51378 0.347823 9.58733 0.506377 9.58733 0.676377C9.58733 0.8466 9.51378 1.00516 9.36667 1.15204L2.12333 8.39571H17.5617C17.7514 8.39571 17.91 8.45938 18.0373 8.58671C18.1647 8.71405 18.2283 8.8726 18.2283 9.06238C18.2283 9.25216 18.1647 9.41071 18.0373 9.53804C17.91 9.66538 17.7514 9.72904 17.5617 9.72904H2.12333Z" fill="white"/>
</svg>
