<?xml version="1.0"?>
<svg width="19" height="19" xmlns="http://www.w3.org/2000/svg" xmlns:svg="http://www.w3.org/2000/svg">
 <g class="layer">
  <title>Layer 1</title>
  <path d="m2.12,9.73l7.25,7.25c0.13,0.13 0.2,0.28 0.21,0.46c0,0.18 -0.07,0.34 -0.21,0.48c-0.15,0.15 -0.31,0.22 -0.48,0.22c-0.16,0 -0.32,-0.07 -0.47,-0.22l-8.1,-8.1c-0.12,-0.12 -0.2,-0.24 -0.25,-0.36c-0.05,-0.12 -0.07,-0.25 -0.07,-0.4c0,-0.14 0.02,-0.27 0.07,-0.39c0.05,-0.13 0.13,-0.25 0.25,-0.36l8.1,-8.11c0.13,-0.12 0.28,-0.19 0.46,-0.2c0.18,-0.01 0.34,0.06 0.49,0.2c0.14,0.15 0.22,0.31 0.22,0.48c0,0.17 -0.08,0.33 -0.22,0.47l-7.25,7.25l15.44,0c0.19,0 0.35,0.06 0.48,0.19c0.12,0.12 0.19,0.28 0.19,0.47c0,0.19 -0.07,0.35 -0.19,0.48c-0.13,0.13 -0.29,0.19 -0.48,0.19l-15.44,0z" fill="white" id="svg_1" style="--darkreader-inline-fill: var(--darkreader-text-ffffff, #e8e6e3);"/>
 </g>
</svg>